<mxfile host="Electron" agent="Mozilla/5.0 (Windows NT 10.0; Win64; x64) AppleWebKit/537.36 (KHTML, like Gecko) draw.io/26.1.1 Chrome/132.0.6834.210 Electron/34.3.3 Safari/537.36" version="26.1.1">
  <diagram name="Página-1" id="GJEIAjaZK0kfiM3TGm7x">
    <mxGraphModel dx="2145" dy="2494" grid="1" gridSize="10" guides="1" tooltips="1" connect="1" arrows="1" fold="1" page="1" pageScale="1" pageWidth="827" pageHeight="1169" math="0" shadow="0">
      <root>
        <mxCell id="0" />
        <mxCell id="1" parent="0" />
        <mxCell id="J5O7sj9_nqmRkPlykjRa-29" style="edgeStyle=orthogonalEdgeStyle;rounded=0;orthogonalLoop=1;jettySize=auto;html=1;" edge="1" parent="1" source="J5O7sj9_nqmRkPlykjRa-1" target="J5O7sj9_nqmRkPlykjRa-12">
          <mxGeometry relative="1" as="geometry" />
        </mxCell>
        <mxCell id="J5O7sj9_nqmRkPlykjRa-1" value="Dados.Gov" style="sketch=0;outlineConnect=0;fontColor=#232F3E;gradientColor=none;fillColor=#232F3D;strokeColor=none;dashed=0;verticalLabelPosition=bottom;verticalAlign=top;align=center;html=1;fontSize=12;fontStyle=0;aspect=fixed;pointerEvents=1;shape=mxgraph.aws4.globe;" vertex="1" parent="1">
          <mxGeometry x="-207" y="250" width="78" height="78" as="geometry" />
        </mxCell>
        <mxCell id="J5O7sj9_nqmRkPlykjRa-3" value="Seleção dos Modelos de Previsão" style="fillColor=none;strokeColor=#5A6C86;dashed=1;verticalAlign=top;fontStyle=0;fontColor=#5A6C86;whiteSpace=wrap;html=1;" vertex="1" parent="1">
          <mxGeometry x="510" y="-58.5" width="560" height="695" as="geometry" />
        </mxCell>
        <mxCell id="J5O7sj9_nqmRkPlykjRa-11" value="Raw Data" style="sketch=0;points=[[0,0,0],[0.25,0,0],[0.5,0,0],[0.75,0,0],[1,0,0],[0,1,0],[0.25,1,0],[0.5,1,0],[0.75,1,0],[1,1,0],[0,0.25,0],[0,0.5,0],[0,0.75,0],[1,0.25,0],[1,0.5,0],[1,0.75,0]];outlineConnect=0;fontColor=#232F3E;fillColor=#C925D1;strokeColor=#ffffff;dashed=0;verticalLabelPosition=bottom;verticalAlign=top;align=center;html=1;fontSize=12;fontStyle=0;aspect=fixed;shape=mxgraph.aws4.resourceIcon;resIcon=mxgraph.aws4.database;" vertex="1" parent="1">
          <mxGeometry x="134" y="250" width="78" height="78" as="geometry" />
        </mxCell>
        <mxCell id="J5O7sj9_nqmRkPlykjRa-12" value="API Scraping" style="sketch=0;points=[[0,0,0],[0.25,0,0],[0.5,0,0],[0.75,0,0],[1,0,0],[0,1,0],[0.25,1,0],[0.5,1,0],[0.75,1,0],[1,1,0],[0,0.25,0],[0,0.5,0],[0,0.75,0],[1,0.25,0],[1,0.5,0],[1,0.75,0]];outlineConnect=0;fontColor=#232F3E;fillColor=#C925D1;strokeColor=#ffffff;dashed=0;verticalLabelPosition=bottom;verticalAlign=top;align=center;html=1;fontSize=12;fontStyle=0;aspect=fixed;shape=mxgraph.aws4.resourceIcon;resIcon=mxgraph.aws4.command_line_interface;" vertex="1" parent="1">
          <mxGeometry x="-57" y="250" width="78" height="78" as="geometry" />
        </mxCell>
        <mxCell id="J5O7sj9_nqmRkPlykjRa-13" value="SARIMA" style="sketch=0;points=[[0,0,0],[0.25,0,0],[0.5,0,0],[0.75,0,0],[1,0,0],[0,1,0],[0.25,1,0],[0.5,1,0],[0.75,1,0],[1,1,0],[0,0.25,0],[0,0.5,0],[0,0.75,0],[1,0.25,0],[1,0.5,0],[1,0.75,0]];outlineConnect=0;fontColor=#232F3E;fillColor=#01A88D;strokeColor=#ffffff;dashed=0;verticalLabelPosition=bottom;verticalAlign=top;align=center;html=1;fontSize=12;fontStyle=0;aspect=fixed;shape=mxgraph.aws4.resourceIcon;resIcon=mxgraph.aws4.forecast;" vertex="1" parent="1">
          <mxGeometry x="610" y="120" width="78" height="78" as="geometry" />
        </mxCell>
        <mxCell id="J5O7sj9_nqmRkPlykjRa-15" value="ARIMA" style="sketch=0;points=[[0,0,0],[0.25,0,0],[0.5,0,0],[0.75,0,0],[1,0,0],[0,1,0],[0.25,1,0],[0.5,1,0],[0.75,1,0],[1,1,0],[0,0.25,0],[0,0.5,0],[0,0.75,0],[1,0.25,0],[1,0.5,0],[1,0.75,0]];outlineConnect=0;fontColor=#232F3E;fillColor=#01A88D;strokeColor=#ffffff;dashed=0;verticalLabelPosition=bottom;verticalAlign=top;align=center;html=1;fontSize=12;fontStyle=0;aspect=fixed;shape=mxgraph.aws4.resourceIcon;resIcon=mxgraph.aws4.forecast;" vertex="1" parent="1">
          <mxGeometry x="610" width="78" height="78" as="geometry" />
        </mxCell>
        <mxCell id="J5O7sj9_nqmRkPlykjRa-42" style="edgeStyle=orthogonalEdgeStyle;rounded=0;orthogonalLoop=1;jettySize=auto;html=1;" edge="1" parent="1" source="J5O7sj9_nqmRkPlykjRa-16" target="J5O7sj9_nqmRkPlykjRa-39">
          <mxGeometry relative="1" as="geometry" />
        </mxCell>
        <mxCell id="J5O7sj9_nqmRkPlykjRa-16" value="LSTMs" style="sketch=0;points=[[0,0,0],[0.25,0,0],[0.5,0,0],[0.75,0,0],[1,0,0],[0,1,0],[0.25,1,0],[0.5,1,0],[0.75,1,0],[1,1,0],[0,0.25,0],[0,0.5,0],[0,0.75,0],[1,0.25,0],[1,0.5,0],[1,0.75,0]];outlineConnect=0;fontColor=#232F3E;fillColor=#01A88D;strokeColor=#ffffff;dashed=0;verticalLabelPosition=bottom;verticalAlign=top;align=center;html=1;fontSize=12;fontStyle=0;aspect=fixed;shape=mxgraph.aws4.resourceIcon;resIcon=mxgraph.aws4.forecast;" vertex="1" parent="1">
          <mxGeometry x="610" y="250" width="78" height="78" as="geometry" />
        </mxCell>
        <mxCell id="J5O7sj9_nqmRkPlykjRa-26" value="Dataprep" style="sketch=0;points=[[0,0,0],[0.25,0,0],[0.5,0,0],[0.75,0,0],[1,0,0],[0,1,0],[0.25,1,0],[0.5,1,0],[0.75,1,0],[1,1,0],[0,0.25,0],[0,0.5,0],[0,0.75,0],[1,0.25,0],[1,0.5,0],[1,0.75,0]];outlineConnect=0;fontColor=#232F3E;fillColor=#C925D1;strokeColor=#ffffff;dashed=0;verticalLabelPosition=bottom;verticalAlign=top;align=center;html=1;fontSize=12;fontStyle=0;aspect=fixed;shape=mxgraph.aws4.resourceIcon;resIcon=mxgraph.aws4.command_line_interface;" vertex="1" parent="1">
          <mxGeometry x="270" y="250" width="78" height="78" as="geometry" />
        </mxCell>
        <mxCell id="J5O7sj9_nqmRkPlykjRa-27" style="edgeStyle=orthogonalEdgeStyle;rounded=0;orthogonalLoop=1;jettySize=auto;html=1;entryX=0;entryY=0.5;entryDx=0;entryDy=0;entryPerimeter=0;" edge="1" parent="1" source="J5O7sj9_nqmRkPlykjRa-11" target="J5O7sj9_nqmRkPlykjRa-26">
          <mxGeometry relative="1" as="geometry" />
        </mxCell>
        <mxCell id="J5O7sj9_nqmRkPlykjRa-28" style="edgeStyle=orthogonalEdgeStyle;rounded=0;orthogonalLoop=1;jettySize=auto;html=1;entryX=0;entryY=0.5;entryDx=0;entryDy=0;entryPerimeter=0;" edge="1" parent="1" source="J5O7sj9_nqmRkPlykjRa-12" target="J5O7sj9_nqmRkPlykjRa-11">
          <mxGeometry relative="1" as="geometry" />
        </mxCell>
        <mxCell id="J5O7sj9_nqmRkPlykjRa-30" value="Dados Tratados" style="sketch=0;points=[[0,0,0],[0.25,0,0],[0.5,0,0],[0.75,0,0],[1,0,0],[0,1,0],[0.25,1,0],[0.5,1,0],[0.75,1,0],[1,1,0],[0,0.25,0],[0,0.5,0],[0,0.75,0],[1,0.25,0],[1,0.5,0],[1,0.75,0]];outlineConnect=0;fontColor=#232F3E;fillColor=#C925D1;strokeColor=#ffffff;dashed=0;verticalLabelPosition=bottom;verticalAlign=top;align=center;html=1;fontSize=12;fontStyle=0;aspect=fixed;shape=mxgraph.aws4.resourceIcon;resIcon=mxgraph.aws4.database;" vertex="1" parent="1">
          <mxGeometry x="400" y="250" width="78" height="78" as="geometry" />
        </mxCell>
        <mxCell id="J5O7sj9_nqmRkPlykjRa-31" style="edgeStyle=orthogonalEdgeStyle;rounded=0;orthogonalLoop=1;jettySize=auto;html=1;entryX=0;entryY=0.5;entryDx=0;entryDy=0;entryPerimeter=0;" edge="1" parent="1" source="J5O7sj9_nqmRkPlykjRa-26" target="J5O7sj9_nqmRkPlykjRa-30">
          <mxGeometry relative="1" as="geometry" />
        </mxCell>
        <mxCell id="J5O7sj9_nqmRkPlykjRa-32" style="edgeStyle=orthogonalEdgeStyle;rounded=0;orthogonalLoop=1;jettySize=auto;html=1;entryX=0;entryY=0.5;entryDx=0;entryDy=0;entryPerimeter=0;" edge="1" parent="1" source="J5O7sj9_nqmRkPlykjRa-30" target="J5O7sj9_nqmRkPlykjRa-15">
          <mxGeometry relative="1" as="geometry" />
        </mxCell>
        <mxCell id="J5O7sj9_nqmRkPlykjRa-33" style="edgeStyle=orthogonalEdgeStyle;rounded=0;orthogonalLoop=1;jettySize=auto;html=1;entryX=0;entryY=0.5;entryDx=0;entryDy=0;entryPerimeter=0;" edge="1" parent="1" source="J5O7sj9_nqmRkPlykjRa-30" target="J5O7sj9_nqmRkPlykjRa-13">
          <mxGeometry relative="1" as="geometry" />
        </mxCell>
        <mxCell id="J5O7sj9_nqmRkPlykjRa-34" style="edgeStyle=orthogonalEdgeStyle;rounded=0;orthogonalLoop=1;jettySize=auto;html=1;entryX=0;entryY=0.5;entryDx=0;entryDy=0;entryPerimeter=0;" edge="1" parent="1" source="J5O7sj9_nqmRkPlykjRa-30" target="J5O7sj9_nqmRkPlykjRa-16">
          <mxGeometry relative="1" as="geometry" />
        </mxCell>
        <mxCell id="J5O7sj9_nqmRkPlykjRa-35" value="Prophet" style="sketch=0;points=[[0,0,0],[0.25,0,0],[0.5,0,0],[0.75,0,0],[1,0,0],[0,1,0],[0.25,1,0],[0.5,1,0],[0.75,1,0],[1,1,0],[0,0.25,0],[0,0.5,0],[0,0.75,0],[1,0.25,0],[1,0.5,0],[1,0.75,0]];outlineConnect=0;fontColor=#232F3E;fillColor=#01A88D;strokeColor=#ffffff;dashed=0;verticalLabelPosition=bottom;verticalAlign=top;align=center;html=1;fontSize=12;fontStyle=0;aspect=fixed;shape=mxgraph.aws4.resourceIcon;resIcon=mxgraph.aws4.forecast;" vertex="1" parent="1">
          <mxGeometry x="610" y="377" width="78" height="78" as="geometry" />
        </mxCell>
        <mxCell id="J5O7sj9_nqmRkPlykjRa-36" style="edgeStyle=orthogonalEdgeStyle;rounded=0;orthogonalLoop=1;jettySize=auto;html=1;entryX=0;entryY=0.5;entryDx=0;entryDy=0;entryPerimeter=0;" edge="1" parent="1" source="J5O7sj9_nqmRkPlykjRa-30" target="J5O7sj9_nqmRkPlykjRa-35">
          <mxGeometry relative="1" as="geometry" />
        </mxCell>
        <mxCell id="J5O7sj9_nqmRkPlykjRa-37" value="XGBoost" style="sketch=0;points=[[0,0,0],[0.25,0,0],[0.5,0,0],[0.75,0,0],[1,0,0],[0,1,0],[0.25,1,0],[0.5,1,0],[0.75,1,0],[1,1,0],[0,0.25,0],[0,0.5,0],[0,0.75,0],[1,0.25,0],[1,0.5,0],[1,0.75,0]];outlineConnect=0;fontColor=#232F3E;fillColor=#01A88D;strokeColor=#ffffff;dashed=0;verticalLabelPosition=bottom;verticalAlign=top;align=center;html=1;fontSize=12;fontStyle=0;aspect=fixed;shape=mxgraph.aws4.resourceIcon;resIcon=mxgraph.aws4.forecast;" vertex="1" parent="1">
          <mxGeometry x="610" y="500" width="78" height="78" as="geometry" />
        </mxCell>
        <mxCell id="J5O7sj9_nqmRkPlykjRa-38" style="edgeStyle=orthogonalEdgeStyle;rounded=0;orthogonalLoop=1;jettySize=auto;html=1;entryX=0;entryY=0.5;entryDx=0;entryDy=0;entryPerimeter=0;" edge="1" parent="1" source="J5O7sj9_nqmRkPlykjRa-30" target="J5O7sj9_nqmRkPlykjRa-37">
          <mxGeometry relative="1" as="geometry" />
        </mxCell>
        <mxCell id="J5O7sj9_nqmRkPlykjRa-49" style="edgeStyle=orthogonalEdgeStyle;rounded=0;orthogonalLoop=1;jettySize=auto;html=1;" edge="1" parent="1" source="J5O7sj9_nqmRkPlykjRa-39" target="J5O7sj9_nqmRkPlykjRa-48">
          <mxGeometry relative="1" as="geometry" />
        </mxCell>
        <mxCell id="J5O7sj9_nqmRkPlykjRa-39" value="Avaliação dos Modelos" style="sketch=0;points=[[0,0,0],[0.25,0,0],[0.5,0,0],[0.75,0,0],[1,0,0],[0,1,0],[0.25,1,0],[0.5,1,0],[0.75,1,0],[1,1,0],[0,0.25,0],[0,0.5,0],[0,0.75,0],[1,0.25,0],[1,0.5,0],[1,0.75,0]];outlineConnect=0;fontColor=#232F3E;fillColor=#8C4FFF;strokeColor=#ffffff;dashed=0;verticalLabelPosition=bottom;verticalAlign=top;align=center;html=1;fontSize=12;fontStyle=0;aspect=fixed;shape=mxgraph.aws4.resourceIcon;resIcon=mxgraph.aws4.analytics;" vertex="1" parent="1">
          <mxGeometry x="790" y="250" width="78" height="78" as="geometry" />
        </mxCell>
        <mxCell id="J5O7sj9_nqmRkPlykjRa-43" style="edgeStyle=orthogonalEdgeStyle;rounded=0;orthogonalLoop=1;jettySize=auto;html=1;entryX=0;entryY=0.5;entryDx=0;entryDy=0;entryPerimeter=0;" edge="1" parent="1" source="J5O7sj9_nqmRkPlykjRa-35" target="J5O7sj9_nqmRkPlykjRa-39">
          <mxGeometry relative="1" as="geometry" />
        </mxCell>
        <mxCell id="J5O7sj9_nqmRkPlykjRa-44" style="edgeStyle=orthogonalEdgeStyle;rounded=0;orthogonalLoop=1;jettySize=auto;html=1;entryX=0;entryY=0.5;entryDx=0;entryDy=0;entryPerimeter=0;" edge="1" parent="1" source="J5O7sj9_nqmRkPlykjRa-37" target="J5O7sj9_nqmRkPlykjRa-39">
          <mxGeometry relative="1" as="geometry" />
        </mxCell>
        <mxCell id="J5O7sj9_nqmRkPlykjRa-45" style="edgeStyle=orthogonalEdgeStyle;rounded=0;orthogonalLoop=1;jettySize=auto;html=1;entryX=0;entryY=0.5;entryDx=0;entryDy=0;entryPerimeter=0;" edge="1" parent="1" source="J5O7sj9_nqmRkPlykjRa-13" target="J5O7sj9_nqmRkPlykjRa-39">
          <mxGeometry relative="1" as="geometry" />
        </mxCell>
        <mxCell id="J5O7sj9_nqmRkPlykjRa-46" style="edgeStyle=orthogonalEdgeStyle;rounded=0;orthogonalLoop=1;jettySize=auto;html=1;entryX=0;entryY=0.5;entryDx=0;entryDy=0;entryPerimeter=0;" edge="1" parent="1" source="J5O7sj9_nqmRkPlykjRa-15" target="J5O7sj9_nqmRkPlykjRa-39">
          <mxGeometry relative="1" as="geometry" />
        </mxCell>
        <mxCell id="J5O7sj9_nqmRkPlykjRa-47" value="Dashboard&lt;div&gt;(Power BI)&lt;/div&gt;" style="sketch=0;points=[[0,0,0],[0.25,0,0],[0.5,0,0],[0.75,0,0],[1,0,0],[0,1,0],[0.25,1,0],[0.5,1,0],[0.75,1,0],[1,1,0],[0,0.25,0],[0,0.5,0],[0,0.75,0],[1,0.25,0],[1,0.5,0],[1,0.75,0]];outlineConnect=0;fontColor=#232F3E;fillColor=#8C4FFF;strokeColor=#ffffff;dashed=0;verticalLabelPosition=bottom;verticalAlign=top;align=center;html=1;fontSize=12;fontStyle=0;aspect=fixed;shape=mxgraph.aws4.resourceIcon;resIcon=mxgraph.aws4.elasticsearch_service;" vertex="1" parent="1">
          <mxGeometry x="1130" y="390" width="78" height="78" as="geometry" />
        </mxCell>
        <mxCell id="J5O7sj9_nqmRkPlykjRa-54" style="edgeStyle=orthogonalEdgeStyle;rounded=0;orthogonalLoop=1;jettySize=auto;html=1;" edge="1" parent="1" source="J5O7sj9_nqmRkPlykjRa-48" target="J5O7sj9_nqmRkPlykjRa-53">
          <mxGeometry relative="1" as="geometry" />
        </mxCell>
        <mxCell id="J5O7sj9_nqmRkPlykjRa-48" value="Métricas de avaliação&lt;div&gt;Do Modelo&lt;/div&gt;" style="sketch=0;points=[[0,0,0],[0.25,0,0],[0.5,0,0],[0.75,0,0],[1,0,0],[0,1,0],[0.25,1,0],[0.5,1,0],[0.75,1,0],[1,1,0],[0,0.25,0],[0,0.5,0],[0,0.75,0],[1,0.25,0],[1,0.5,0],[1,0.75,0]];outlineConnect=0;fontColor=#232F3E;fillColor=#C925D1;strokeColor=#ffffff;dashed=0;verticalLabelPosition=bottom;verticalAlign=top;align=center;html=1;fontSize=12;fontStyle=0;aspect=fixed;shape=mxgraph.aws4.resourceIcon;resIcon=mxgraph.aws4.database;" vertex="1" parent="1">
          <mxGeometry x="790" y="390" width="78" height="78" as="geometry" />
        </mxCell>
        <mxCell id="J5O7sj9_nqmRkPlykjRa-51" value="Captura dos Dados" style="fillColor=none;strokeColor=#5A6C86;dashed=1;verticalAlign=top;fontStyle=0;fontColor=#5A6C86;whiteSpace=wrap;html=1;" vertex="1" parent="1">
          <mxGeometry x="-247" y="220" width="300" height="170" as="geometry" />
        </mxCell>
        <mxCell id="J5O7sj9_nqmRkPlykjRa-52" value="Armazenamento dos Dados" style="fillColor=none;strokeColor=#5A6C86;dashed=1;verticalAlign=top;fontStyle=0;fontColor=#5A6C86;whiteSpace=wrap;html=1;" vertex="1" parent="1">
          <mxGeometry x="90" y="220" width="400" height="170" as="geometry" />
        </mxCell>
        <mxCell id="J5O7sj9_nqmRkPlykjRa-53" value="Seleção do Modelo" style="sketch=0;outlineConnect=0;fontColor=#232F3E;gradientColor=none;fillColor=#8C4FFF;strokeColor=none;dashed=0;verticalLabelPosition=bottom;verticalAlign=top;align=center;html=1;fontSize=12;fontStyle=0;aspect=fixed;pointerEvents=1;shape=mxgraph.aws4.search_documents;" vertex="1" parent="1">
          <mxGeometry x="950" y="390" width="68" height="78" as="geometry" />
        </mxCell>
        <mxCell id="J5O7sj9_nqmRkPlykjRa-55" style="edgeStyle=orthogonalEdgeStyle;rounded=0;orthogonalLoop=1;jettySize=auto;html=1;entryX=0;entryY=0.5;entryDx=0;entryDy=0;entryPerimeter=0;" edge="1" parent="1" source="J5O7sj9_nqmRkPlykjRa-53" target="J5O7sj9_nqmRkPlykjRa-47">
          <mxGeometry relative="1" as="geometry" />
        </mxCell>
      </root>
    </mxGraphModel>
  </diagram>
</mxfile>
